<?xml version="1.0" encoding="UTF-8" standalone="no"?>
<svg
   xmlns:dc="http://purl.org/dc/elements/1.1/"
   xmlns:cc="http://creativecommons.org/ns#"
   xmlns:rdf="http://www.w3.org/1999/02/22-rdf-syntax-ns#"
   xmlns:svg="http://www.w3.org/2000/svg"
   xmlns="http://www.w3.org/2000/svg"
   viewBox="0 0 792.23999 613.06665"
   height="613.06665"
   width="792.23999"
   xml:space="preserve"
   id="svg2"
   version="1.1"><metadata
     id="metadata8"><rdf:RDF><cc:Work
         rdf:about=""><dc:format>image/svg+xml</dc:format><dc:type
           rdf:resource="http://purl.org/dc/dcmitype/StillImage" /></cc:Work></rdf:RDF></metadata><defs
     id="defs6" /><g
     transform="matrix(1.3333333,0,0,-1.3333333,0,613.06667)"
     id="g10"><g
       transform="scale(0.1)"
       id="g12"><path
         id="path14"
         style="fill:#ffffff;fill-opacity:1;fill-rule:nonzero;stroke:none"
         d="M 5941.76,0 H 0 V 4597.96 H 5941.76 V 0" /><path
         id="path16"
         style="fill:#ec9c33;fill-opacity:1;fill-rule:nonzero;stroke:none"
         d="m 4018.72,2700.15 c -49.8,0 -102.15,-9.55 -157.73,-31.35 -121.49,-47.65 -216.13,-138.4 -308.91,-231.36 11.25,-5.07 22.61,-9.98 34.09,-14.74 197.87,76.34 362.41,207.07 593.28,236.04 5.11,0.64 10.16,1.22 15.21,1.75 -55.37,24.69 -113.6,39.66 -175.94,39.66" /><path
         id="path18"
         style="fill:#ec9c33;fill-opacity:1;fill-rule:nonzero;stroke:none"
         d="m 2139.8,3440.14 c -101.58,37.57 -207.07,53.52 -311.88,53.53 -271.25,0.01 -538.24,-106.8 -723.62,-222.12 -203.405,-126.57 -410.066,-327.76 -714.53,-327.76 -20.977,0 -42.375,0.96 -64.309,2.96 C 192.473,2958.86 82.6719,3023.82 0,3105.11 v -360.53 c 10.0117,-23.71 20.4258,-47.15 31.293,-70.21 59.6562,-126.52 165.09,-265.14 298.84,-321.12 30.66,40.62 60.918,80.01 91.39,116.48 181.297,216.99 459.567,439.67 754.607,470.47 170.85,179.88 410.75,344.5 659,344.48 51.47,-0.01 103.33,-7.08 154.97,-22.56 150.09,-45.01 260.86,-133.67 354.09,-242.2 129.72,-6.39 243.23,-32.94 346.55,-72.15 -130.04,195.86 -265.72,386.89 -550.94,492.37" /><path
         id="path20"
         style="fill:#ec9c33;fill-opacity:1;fill-rule:nonzero;stroke:none"
         d="m 4267.67,2664.38 c -23.62,0 -47.95,-1.26 -73.01,-3.89 77.44,-34.54 149.22,-88.1 218.45,-146.25 34.86,32.59 67.79,66.64 99.87,101.37 -73.76,30.23 -154.43,48.76 -245.31,48.77" /><path
         id="path22"
         style="fill:#e76723;fill-opacity:1;fill-rule:nonzero;stroke:none"
         d="M 31.293,2674.37 C 20.4258,2697.43 10.0117,2720.87 0,2744.58 v -765.43 c 128.059,99.51 231.227,243.14 330.133,374.1 -133.75,55.98 -239.1838,194.6 -298.84,321.12" /><path
         id="path24"
         style="fill:#e76723;fill-opacity:1;fill-rule:nonzero;stroke:none"
         d="m 4194.66,2660.49 c -5.05,-0.53 -10.1,-1.11 -15.21,-1.75 -230.87,-28.97 -395.41,-159.7 -593.28,-236.04 57.19,-23.77 117.46,-43.93 181.86,-59.18 59.87,-14.15 124.76,-21.88 190.58,-21.88 147.28,0 298.9,38.73 407.62,130.82 16.04,13.61 31.64,27.56 46.88,41.78 -69.23,58.15 -141.01,111.71 -218.45,146.25" /><path
         id="path26"
         style="fill:#e76723;fill-opacity:1;fill-rule:nonzero;stroke:none"
         d="m 1990.1,3262.12 c -51.64,15.48 -103.5,22.55 -154.97,22.56 -248.25,0.02 -488.15,-164.6 -659,-344.48 22.79,2.37 45.7,3.62 68.66,3.61 58.58,0 117.62,-8.07 176.42,-25.68 77.93,-23.37 146.59,-57.1 208.25,-98.59 185.26,115.88 398.37,196.84 626.68,201.59 9.07,0.18 18.05,0.28 26.97,0.28 20.78,0 41.1,-0.5 61.08,-1.49 -93.23,108.53 -204,197.19 -354.09,242.2" /><path
         id="path28"
         style="fill:#ec9c33;fill-opacity:1;fill-rule:nonzero;stroke:none"
         d="m 3074.03,2503.83 c 95.82,-66.7 223.36,-114.73 346.02,-114.73 31.92,0 63.5,3.24 94.1,10.27 12.64,12.65 25.27,25.38 37.93,38.07 -314.01,141.14 -538.17,387.69 -861.34,510.33 105.72,-159.22 207.69,-321.64 383.29,-443.94" /><path
         id="path30"
         style="fill:#ec9c33;fill-opacity:1;fill-rule:nonzero;stroke:none"
         d="m 5929.16,3025.78 c -176.2,59.33 -357.73,122.48 -549.63,122.48 -126.81,0 -258.13,-27.58 -395.42,-102.08 -203.98,-110.69 -329.36,-277.16 -471.13,-430.57 174.29,-71.46 309.88,-208.25 449.9,-319.89 208.91,97.74 384.83,383.7 618.85,432.86 16.9,3.56 33.61,5.21 50.06,5.21 109.57,0 209.37,-73.5 297.37,-153.44 v 445.43" /><path
         id="path32"
         style="fill:#e76723;fill-opacity:1;fill-rule:nonzero;stroke:none"
         d="m 3514.15,2399.37 c 12.63,2.9 25.09,6.43 37.36,10.65 11.67,4.02 23.23,8.25 34.66,12.68 -11.48,4.76 -22.84,9.67 -34.09,14.74 -12.66,-12.69 -25.29,-25.42 -37.93,-38.07" /><path
         id="path34"
         style="fill:#e76723;fill-opacity:1;fill-rule:nonzero;stroke:none"
         d="m 5929.16,2580.35 c -88,79.94 -187.8,153.44 -297.37,153.44 -16.45,0 -33.16,-1.65 -50.06,-5.21 -234.02,-49.16 -409.94,-335.12 -618.85,-432.86 0.06,-0.06 0.17,-0.15 0.24,-0.22 100.31,-79.95 194.89,-115.31 286.35,-122.6 81.76,65.2 167.19,118.15 260.75,137.81 19.26,4.04 38.26,5.94 57.03,5.94 41.48,0 81.69,-9.26 120.65,-24.95 79,36.2 158.83,72.88 241.26,98.13 v 190.52" /><path
         id="path36"
         style="fill:#e76723;fill-opacity:1;fill-rule:nonzero;stroke:none"
         d="m 3074.03,2503.83 c -175.6,122.3 -277.57,284.72 -383.29,443.94 -103.32,39.21 -216.83,65.76 -346.55,72.15 200.85,-233.81 320.3,-559.89 576.27,-740.72 73.34,-51.81 162.83,-85.27 250.24,-85.27 62,0 122.99,16.86 176.4,55.92 59.42,43.46 113.49,95.91 167.05,149.52 -30.6,-7.03 -62.18,-10.27 -94.1,-10.27 -122.66,0 -250.2,48.03 -346.02,114.73" /><path
         id="path38"
         style="fill:#e76723;fill-opacity:1;fill-rule:nonzero;stroke:none"
         d="m 4413.11,2514.24 c 59.41,-49.93 117,-103.27 174.72,-150.88 86.85,-71.66 165.24,-100.39 238.25,-100.39 47.6,0 92.94,12.23 136.8,32.75 -140.02,111.64 -275.61,248.43 -449.9,319.89 -32.08,-34.73 -65.01,-68.78 -99.87,-101.37" /><path
         id="path40"
         style="fill:#e04820;fill-opacity:1;fill-rule:nonzero;stroke:none"
         d="m 4962.88,2295.72 c -43.86,-20.52 -89.2,-32.75 -136.8,-32.75 -73.01,0 -151.4,28.73 -238.25,100.39 -57.72,47.61 -115.31,100.95 -174.72,150.88 -15.24,-14.22 -30.84,-28.17 -46.88,-41.78 -108.72,-92.09 -260.34,-130.82 -407.62,-130.82 -65.82,0 -130.71,7.73 -190.58,21.88 -64.4,15.25 -124.67,35.41 -181.86,59.18 -11.43,-4.43 -22.99,-8.66 -34.66,-12.68 -12.27,-4.22 -24.73,-7.75 -37.36,-10.65 -53.56,-53.61 -107.63,-106.06 -167.05,-149.52 -53.41,-39.06 -114.4,-55.92 -176.4,-55.92 -87.41,0 -176.9,33.46 -250.24,85.27 -255.97,180.83 -375.42,506.91 -576.27,740.72 -19.98,0.99 -40.3,1.49 -61.08,1.49 -8.92,0 -17.9,-0.1 -26.97,-0.28 -228.31,-4.75 -441.42,-85.71 -626.68,-201.59 364.8,-245.37 485.96,-762.62 850.95,-1020.45 83.51,-58.99 185.36,-97.08 284.89,-97.08 70.6,0 140.03,19.17 200.85,63.67 200.72,146.81 347.97,383.98 585.06,476.96 63.27,24.82 122.87,35.7 179.56,35.7 255.5,-0.03 451.07,-221.06 647.92,-383.44 98.89,-81.57 188.14,-114.29 271.25,-114.29 221.73,0 399.67,232.86 599.53,392.29 -91.46,7.29 -186.04,42.65 -286.35,122.6 -0.07,0.07 -0.18,0.16 -0.24,0.22" /><path
         id="path42"
         style="fill:#e04820;fill-opacity:1;fill-rule:nonzero;stroke:none"
         d="m 5929.16,2389.83 c -82.43,-25.25 -162.26,-61.93 -241.26,-98.13 83.53,-33.68 161.04,-97.05 231.64,-162.36 3.17,2.76 6.4,5.43 9.62,8.15 v 252.34" /><path
         id="path44"
         style="fill:#3c6cb3;fill-opacity:1;fill-rule:nonzero;stroke:none"
         d="m 4824.19,1623.56 c 507.98,-263.45 754.72,205.9 1085.38,497.05 -115.47,96.45 -248.06,180.95 -392.77,141.52 -304.98,-83.14 -517.45,-518.77 -805.78,-577.2 37.9,-21.14 75.61,-41.89 113.17,-61.37" /><path
         id="path46"
         style="fill:#3c6cb3;fill-opacity:1;fill-rule:nonzero;stroke:none"
         d="m 982.68,2166.28 c 696.95,-71.85 898.2,-768.57 1472.11,-1014.45 191.99,-82.25 443.53,-87.6 613.7,57.57 233.05,198.83 387.43,485.78 673,632.98 179.16,92.35 343.08,96.84 497.56,58.5 -194.81,156.21 -402.89,298.88 -675.31,174.34 -235.16,-107.5 -378.66,-354 -576.8,-513.24 -144.67,-116.26 -341.17,-88.32 -484.98,4.03 -429.88,276.07 -532.46,927.48 -1072.4,1056.72 -380.62,91.1 -764.251,-218.72 -990.787,-509.73 -23.246,-29.88 -46.355,-61.52 -69.601,-94.14 187.715,106.91 396.683,169.76 613.508,147.42" /><path
         id="path48"
         style="fill:#2f6b39;fill-opacity:1;fill-rule:nonzero;stroke:none"
         d="m 421.523,2469.73 c -30.472,-36.47 -60.73,-75.86 -91.39,-116.48 38.832,-16.25 80.07,-25.54 123.258,-25.54 7.707,0 15.492,0.3 23.328,0.9 299.551,23.18 463.613,334.16 635.301,539.66 20.06,24.01 41.48,48.1 64.11,71.93 -295.04,-30.8 -573.31,-253.48 -754.607,-470.47" /><path
         id="path50"
         style="fill:#234729;fill-opacity:1;fill-rule:nonzero;stroke:none"
         d="m 1421.21,2918.13 c -58.8,17.61 -117.84,25.68 -176.42,25.68 -22.96,0.01 -45.87,-1.24 -68.66,-3.61 -22.63,-23.83 -44.05,-47.92 -64.11,-71.93 -171.688,-205.5 -335.75,-516.48 -635.301,-539.66 -7.836,-0.6 -15.621,-0.9 -23.328,-0.9 -43.188,0 -84.426,9.29 -123.258,25.54 C 231.227,2222.29 128.059,2078.66 0,1979.15 v -246.22 c 108.523,108.05 233.27,208.59 369.211,286 23.238,32.6 46.324,64.21 69.562,94.07 199.075,255.73 519.387,525.96 852.417,525.93 30.21,0 60.57,-2.22 90.9,-6.89 75.03,67.54 157.95,131.58 247.37,187.5 -61.66,41.49 -130.32,75.22 -208.25,98.59" /><path
         id="path52"
         style="fill:#234729;fill-opacity:1;fill-rule:nonzero;stroke:none"
         d="m 5567.25,2316.65 c -18.77,0 -37.77,-1.9 -57.03,-5.94 -93.56,-19.66 -178.99,-72.61 -260.75,-137.81 12.4,-1 24.74,-1.47 37.03,-1.47 18.55,0 36.97,1.08 55.31,3.1 55.49,39.59 113.35,70.79 174.99,87.6 24.99,6.81 49.56,9.92 73.82,9.92 15.46,0 30.79,-1.27 45.99,-3.67 17.04,7.66 34.16,15.49 51.29,23.32 -38.96,15.69 -79.17,24.95 -120.65,24.95" /><path
         id="path54"
         style="fill:#1d311d;fill-opacity:1;fill-rule:nonzero;stroke:none"
         d="m 1629.46,2819.54 c -89.42,-55.92 -172.34,-119.96 -247.37,-187.5 15.83,-2.43 31.65,-5.52 47.47,-9.31 539.94,-129.24 642.52,-780.65 1072.4,-1056.72 77.35,-49.67 169.92,-80.7 261.47,-80.7 78.7,0 156.64,22.94 223.51,76.67 198.14,159.24 341.64,405.74 576.8,513.24 72.7,33.24 140.78,47.44 205.3,47.44 177.18,-0.02 327.15,-107.23 469.94,-221.73 165.81,-41.15 320.76,-131.69 472.07,-216.02 230,46.65 411.79,333.38 630.76,489.62 -18.34,-2.02 -36.76,-3.1 -55.31,-3.1 -12.29,0 -24.63,0.47 -37.03,1.47 -199.86,-159.43 -377.8,-392.29 -599.53,-392.29 -83.11,0 -172.36,32.72 -271.25,114.29 -196.85,162.38 -392.42,383.41 -647.92,383.44 -56.69,0 -116.29,-10.88 -179.56,-35.7 -237.09,-92.98 -384.34,-330.15 -585.06,-476.96 -60.82,-44.5 -130.25,-63.67 -200.85,-63.67 -99.53,0 -201.38,38.09 -284.89,97.08 -364.99,257.83 -486.15,775.08 -850.95,1020.45 M 5687.9,2291.7 c -17.13,-7.83 -34.25,-15.66 -51.29,-23.32 98.52,-15.6 190.15,-78.62 272.94,-147.76 3.32,2.94 6.64,5.83 9.99,8.72 -70.6,65.31 -148.11,128.68 -231.64,162.36" /><path
         id="path56"
         style="fill:#2b4ba1;fill-opacity:1;fill-rule:nonzero;stroke:none"
         d="m 3563.74,2075.22 c -235.16,-107.5 -378.66,-354 -576.8,-513.24 -66.87,-53.73 -144.81,-76.67 -223.51,-76.67 -91.55,0 -184.12,31.03 -261.47,80.7 -429.88,276.07 -532.46,927.48 -1072.4,1056.72 -15.82,3.79 -31.64,6.88 -47.47,9.31 -30.33,4.67 -60.69,6.89 -90.9,6.89 -333.03,0.03 -653.342,-270.2 -852.417,-525.93 -23.238,-29.86 -46.324,-61.47 -69.562,-94.07 131.863,75.09 274.269,128.44 422.473,145.76 159.109,115.37 337.716,195.69 518.116,195.69 38.01,0 76.08,-3.57 114.07,-11.12 539.87,-107.3 633.54,-752.87 1060.9,-1010.99 72.27,-43.65 158.3,-70.36 244.66,-70.36 84.47,0 169.25,25.53 241.83,85.74 201.05,166.73 348.51,418.31 585.98,534.94 80.1,39.34 154.44,55.87 224.32,55.87 58.26,0 113.46,-11.5 166.36,-30.82 38.49,6.82 76.38,9.95 113.57,9.95 60.7,0 119.75,-8.33 177.49,-22.66 -142.79,114.5 -292.76,221.71 -469.94,221.73 -64.52,0 -132.6,-14.2 -205.3,-47.44" /><path
         id="path58"
         style="fill:#2b4ba1;fill-opacity:1;fill-rule:nonzero;stroke:none"
         d="m 5636.61,2268.38 c -15.2,2.4 -30.53,3.67 -45.99,3.67 -24.26,0 -48.83,-3.11 -73.82,-9.92 -61.64,-16.81 -119.5,-48.01 -174.99,-87.6 -218.97,-156.24 -400.76,-442.97 -630.76,-489.62 37.91,-21.13 75.58,-41.88 113.14,-61.35 8.09,-4.2 16.09,-8.18 24.04,-12.01 223.37,146.81 417.25,462.99 671.07,541.58 29.1,9.01 57.68,13.07 85.63,13.07 89.6,0 173.23,-41.68 249.97,-95.84 18.01,17.21 36.18,34 54.65,50.26 -82.79,69.14 -174.42,132.16 -272.94,147.76" /><path
         id="path60"
         style="fill:#4697d6;fill-opacity:1;fill-rule:nonzero;stroke:none"
         d="M 369.211,2018.93 C 233.27,1941.52 108.523,1840.98 0,1732.93 v -464.25 c 168.27,146.98 293.57,365.63 422.633,532.57 98.633,127.56 225.961,259.69 369.051,363.44 -148.204,-17.32 -290.61,-70.67 -422.473,-145.76" /><path
         id="path62"
         style="fill:#4697d6;fill-opacity:1;fill-rule:nonzero;stroke:none"
         d="m 4711.05,1684.91 c -151.31,84.33 -306.26,174.87 -472.07,216.02 -57.74,14.33 -116.79,22.66 -177.49,22.66 -37.19,0 -75.08,-3.13 -113.57,-9.95 159.86,-58.44 298.65,-188.5 438.12,-289.21 86.51,-62.49 165.71,-88.49 239.86,-88.49 78.88,0 152.05,29.42 222.33,75.61 -7.95,3.83 -15.95,7.81 -24.04,12.01 -37.56,19.47 -75.23,40.22 -113.14,61.35" /><path
         id="path64"
         style="fill:#4697d6;fill-opacity:1;fill-rule:nonzero;stroke:none"
         d="m 5929.16,2120.4 c -3.22,2.98 -6.39,5.97 -9.62,8.94 -3.35,-2.89 -6.67,-5.78 -9.99,-8.72 -18.47,-16.26 -36.64,-33.05 -54.65,-50.26 25.53,-18.02 50.26,-37.42 74.26,-57.13 v 107.17" /></g></g></svg>